<?xml version="1.0" encoding="utf-8"?>
<!-- Generator: Adobe Illustrator 18.0.0, SVG Export Plug-In . SVG Version: 6.00 Build 0)  -->
<!DOCTYPE svg PUBLIC "-//W3C//DTD SVG 1.1//EN" "http://www.w3.org/Graphics/SVG/1.1/DTD/svg11.dtd">
<svg version="1.1" id="Layer_1" xmlns="http://www.w3.org/2000/svg" xmlns:xlink="http://www.w3.org/1999/xlink" x="0px" y="0px"
	 viewBox="-25 -25 150 150" enable-background="new -25 -25 150 150" xml:space="preserve">
<g>
	<path fill="#505050" d="M106.6,74.6c0-3-2-5.4-4.6-6.6c-2.1-0.9-5.4,0.2-6.8,1.1L70.3,81.3c1.6,1.9,2.5,4.4,2.5,7.1
		c0,6.2-5.1,11.3-11.3,11.3h-25c-1.2,0-2.1-0.9-2.1-2.1c0-1.2,0.9-2.1,2.1-2.1h25c3.9,0,7.1-3.2,7.1-7.1c0-1.7-0.6-3.3-1.6-4.5
		c0,0-2.1-2.5-5.5-2.5H23c-2.9,0-5.5,1.2-7.3,3.1l0,0l-20.6,18.1c-1,0.8-1.7,2.1-1.7,3.5c0,1.2,0.5,2.3,1.3,3.1l14.1,14
		c0.1,0.1,0.2,0.2,0.3,0.3l0,0c0.8,0.7,1.8,1.1,3,1.1c1,0,2-0.4,2.7-1h0l0,0c0.2-0.1,0.3-0.3,0.4-0.4l7.2-6.7l0,0
		c1.7-1.5,3.8-2.4,6.2-2.5l0,0l0.1,0c0.1,0,0.3,0,0.4,0c0.5,0,0.9,0,1.4,0.1l27.7,1.7c0.2,0,0.4,0,0.6,0c0.1,0,0.1,0,0.2,0l0.2,0v0
		c1-0.1,1.9-0.5,2.6-1.1l0,0l0.1-0.1c0,0,0.1-0.1,0.1-0.1l42.1-34.7l0,0C105.7,78.6,106.6,76.7,106.6,74.6z"/>
	<path fill="#505050" d="M67.8,8.6C57.3-1.9,51-9.6,45.6-24.7C40.2-9.6,33.9-2,23.3,8.5c-7,6.9-10.6,15.5-10.7,23.6
		c-0.1,18,14.6,32.6,32.7,32.6c18.1,0.1,32.9-14.5,32.9-32.4C78.3,24.1,74.7,15.5,67.8,8.6z M45.5,58.5c-14.7,0-26.7-12-26.7-26.7
		c0-1.5,1.2-2.7,2.7-2.7c1.5,0,2.7,1.2,2.7,2.7c0,11.7,9.5,21.2,21.2,21.2c1.5,0,2.7,1.2,2.7,2.7C48.2,57.3,47,58.5,45.5,58.5z"/>
</g>
</svg>
