<?xml version="1.0" encoding="utf-8"?>
<!-- Generator: Adobe Illustrator 18.0.0, SVG Export Plug-In . SVG Version: 6.00 Build 0)  -->
<!DOCTYPE svg PUBLIC "-//W3C//DTD SVG 1.1//EN" "http://www.w3.org/Graphics/SVG/1.1/DTD/svg11.dtd">
<svg version="1.1" id="Layer_1" xmlns="http://www.w3.org/2000/svg" xmlns:xlink="http://www.w3.org/1999/xlink" x="0px" y="0px"
	 viewBox="-25 -25 150 150" enable-background="new -25 -25 150 150" xml:space="preserve">
<path fill="#505050" d="M47.4,22.4c0.5-1.4,0.7-2.8,0.9-4.2v-7.8c0-1.9,1.5-3.4,3.4-3.4c1.9,0,3.4,1.5,3.4,3.4v7.1
	c0.1,1.6,0.4,3.2,0.9,4.8c7.3,3.2,16.2,2.1,22.5-3.6c6.3-5.8,8.3-14.5,5.7-22c-6-2.6-12.9-2.3-18.7,1c0-0.3,0-0.6,0-0.9
	c0-9.5-5.7-17.7-13.9-21.4C43.3-21,37.6-12.8,37.6-3.2c0,0.3,0,0.5,0,0.8c-5.7-3.1-12.6-3.4-18.4-0.8c-2.6,7.6-0.6,16.3,5.7,22
	C31.2,24.5,40.1,25.6,47.4,22.4z"/>
<path fill="#505050" d="M51.6,33.3c-7.7,0-14,6.3-14,14c0,7.7,6.3,14,14,14s14-6.3,14-14C65.6,39.6,59.4,33.3,51.6,33.3z"/>
<path fill="#505050" d="M31.2,47.4c0-7.7-6.3-14-14-14c-7.7,0-14,6.3-14,14c0,7.7,6.3,14,14,14C24.9,61.3,31.2,55.1,31.2,47.4z"/>
<path fill="#505050" d="M46.9,79.1c0-7.7-6.3-14-14-14c-7.7,0-14,6.3-14,14c0,7.7,6.2,14,14,14C40.6,93,46.9,86.8,46.9,79.1z"/>
<path fill="#505050" d="M51.7,97c-7.7,0-14,6.3-14,14c0,7.7,6.3,14,14,14s14-6.3,14-14C65.7,103.3,59.4,97,51.7,97z"/>
<path fill="#505050" d="M70.4,65.1c-7.7,0-14,6.3-14,14c0,7.7,6.3,14,14,14c7.7,0,14-6.3,14-14C84.4,71.4,78.2,65.1,70.4,65.1z"/>
<path fill="#505050" d="M86.1,33.4c-7.7,0-14,6.3-14,14c0,7.7,6.3,14,14,14c7.7,0,14-6.3,14-14C100.1,39.6,93.8,33.4,86.1,33.4z"/>
</svg>
