<?xml version="1.0" encoding="utf-8"?>
<!-- Generator: Adobe Illustrator 18.0.0, SVG Export Plug-In . SVG Version: 6.00 Build 0)  -->
<!DOCTYPE svg PUBLIC "-//W3C//DTD SVG 1.1//EN" "http://www.w3.org/Graphics/SVG/1.1/DTD/svg11.dtd">
<svg version="1.1" id="Layer_1" xmlns="http://www.w3.org/2000/svg" xmlns:xlink="http://www.w3.org/1999/xlink" x="0px" y="0px"
	 viewBox="-25 -33.5 150 150" enable-background="new -25 -33.5 150 150" xml:space="preserve">
<g>
	<rect x="15.5" y="-20.7" fill="#505050" width="12.4" height="7.5"/>
	<path fill="#505050" d="M91.1,91.8c0.4,0,0.8-0.3,0.8-0.8s-0.3-0.8-0.8-0.8c0,0-12-0.8-12.8-6.8V67c-0.8-15,24.8-7.5,11.2-50.2
		H76.8H64.1C50.6,59.5,76.1,52,75.3,67v16.5c-0.8,6-12.8,6.8-12.8,6.8c-0.4,0-0.8,0.3-0.8,0.8s0.3,0.8,0.8,0.8H31.3
		c3.4,0,5.6-3.4,5.6-5.6c0-14.6,0-49.5,0-64.1c0-7.9-9-9-9-12.4c0-4.5,0-16.9,0-16.9H15.5c0,0,0,12.4,0,16.9c0,3.4-9,4.5-9,12.4
		c0,16.9,0,50.6,0,64.1c0,2.2,2.2,5.6,5.6,5.6H-25v12h150v-12H91.1z"/>
</g>
</svg>
